<?xml version="1.0" encoding="UTF-8" ?>
<!DOCTYPE svg PUBLIC "-//W3C//DTD SVG 1.1//EN" "http://www.w3.org/Graphics/SVG/1.1/DTD/svg11.dtd">
<svg width="916pt" height="916pt" viewBox="0 0 916 916" version="1.1" xmlns="http://www.w3.org/2000/svg">
<g id="#ffffffff">
</g>
<g id="#0a0b0dff">
<path fill="#0a0b0d" opacity="1.00" d=" M 328.55 57.49 C 353.15 45.08 380.65 39.32 408.03 38.00 C 450.34 36.21 492.63 44.35 532.40 58.48 C 570.13 72.11 606.22 91.12 637.20 116.76 C 656.07 132.50 673.12 151.10 683.91 173.38 C 652.68 161.06 621.23 149.30 589.99 137.01 C 593.59 139.81 597.68 141.91 601.29 144.71 C 615.67 155.59 627.98 169.01 638.76 183.41 C 661.20 213.81 677.87 248.45 688.17 284.79 C 693.27 303.50 696.72 322.94 695.57 342.39 C 693.67 338.40 692.61 334.07 690.83 330.03 C 683.31 312.48 673.46 296.01 662.45 280.44 C 652.52 266.60 641.52 253.40 628.49 242.36 C 620.79 236.02 612.10 230.49 602.22 228.40 C 616.64 244.80 631.63 260.81 644.29 278.66 C 655.88 294.62 665.12 312.38 670.82 331.30 C 678.43 356.12 680.30 382.24 680.69 408.07 C 676.22 399.65 672.73 390.70 670.42 381.45 C 666.17 365.68 657.88 351.47 652.09 336.29 C 643.22 343.48 634.25 350.56 625.21 357.52 C 631.95 362.63 638.91 367.46 645.51 372.75 C 647.23 373.58 646.33 375.52 646.29 376.98 C 645.76 381.04 643.11 384.59 639.72 386.78 C 635.40 389.51 630.47 390.98 625.78 392.90 C 633.03 399.91 642.19 405.25 648.44 413.39 C 650.00 415.13 650.18 417.41 650.21 419.63 C 644.31 425.76 635.96 428.44 628.91 432.94 C 634.47 443.71 638.92 455.82 637.64 468.11 C 636.62 477.52 630.01 485.59 621.45 489.33 C 606.03 496.20 588.49 495.69 572.10 493.39 C 564.95 492.59 558.05 490.47 551.12 488.66 C 541.04 488.38 531.52 492.83 523.26 498.24 C 514.13 504.31 506.08 511.99 499.53 520.77 C 508.10 537.14 516.67 553.51 525.32 569.84 C 504.20 573.49 482.68 568.77 462.68 561.96 C 466.18 574.29 478.89 579.41 487.23 587.83 C 473.90 588.85 460.61 590.37 447.32 591.76 C 438.41 611.25 429.03 630.52 419.93 649.92 C 418.39 653.24 416.87 656.57 415.06 659.75 C 432.83 669.69 450.70 679.47 468.52 689.32 C 476.39 693.62 484.11 698.28 492.46 701.62 C 511.61 709.69 531.67 716.74 548.18 729.75 C 559.16 738.21 567.99 749.84 571.81 763.29 C 576.53 779.46 574.37 796.77 569.78 812.71 C 562.32 837.98 549.12 861.09 534.92 883.11 C 535.95 847.07 536.97 811.04 537.98 775.00 C 538.01 764.09 538.64 753.18 539.00 742.28 C 532.25 737.58 524.65 734.34 517.24 730.87 C 495.99 721.36 474.47 712.45 453.23 702.93 C 435.01 694.56 416.57 686.29 400.00 674.87 C 372.24 656.02 348.81 629.43 337.61 597.46 C 329.53 574.91 328.65 550.44 331.42 526.83 C 335.06 494.87 343.54 463.69 352.97 433.01 C 353.70 430.65 354.01 428.19 354.15 425.74 C 350.96 422.61 346.54 421.40 342.51 419.73 C 338.76 426.28 333.74 432.41 332.18 439.96 C 332.97 444.99 335.38 449.79 334.84 455.01 C 333.50 473.53 326.57 491.10 318.80 507.77 C 309.74 526.00 298.42 543.60 282.64 556.73 C 278.11 560.30 273.16 563.36 267.85 565.63 C 276.54 547.67 281.93 528.01 282.85 508.05 C 283.67 488.84 280.04 469.63 273.49 451.61 C 265.13 428.07 252.50 406.41 240.64 384.52 C 228.28 362.06 216.56 338.93 210.16 313.97 C 200.19 276.57 198.68 236.67 207.56 198.89 C 209.93 189.21 213.03 179.72 215.12 169.96 C 216.20 165.41 216.85 160.63 215.81 156.00 C 212.81 144.29 212.09 132.10 212.22 120.05 C 212.85 106.97 215.28 92.63 225.17 83.17 C 233.98 74.43 247.12 72.52 259.02 72.80 C 272.40 72.66 285.62 75.69 299.01 75.08 C 303.28 75.01 307.21 73.00 310.43 70.31 C 316.23 65.72 321.87 60.79 328.55 57.49 M 350.63 82.76 C 332.01 90.75 316.16 103.75 301.28 117.25 C 289.23 128.25 277.23 139.30 265.22 150.33 C 273.54 169.40 286.64 186.14 301.88 200.18 C 316.92 213.53 335.60 224.61 356.26 224.80 C 346.91 229.21 337.21 232.88 327.97 237.54 C 328.13 237.73 328.44 238.12 328.60 238.31 C 327.56 237.99 326.58 238.12 325.68 238.71 C 311.48 246.04 297.58 254.99 287.84 267.92 C 275.11 284.50 271.15 306.64 274.14 327.03 C 276.20 342.02 283.29 356.30 294.16 366.86 C 309.65 382.30 331.40 390.15 352.93 391.81 C 375.19 393.35 398.34 388.58 417.00 376.00 C 430.96 366.67 441.75 352.49 446.18 336.22 C 450.18 321.48 450.27 305.52 445.80 290.87 C 440.65 274.38 429.58 260.19 415.95 249.78 C 401.74 238.65 385.05 230.80 367.50 226.63 C 378.92 227.18 390.37 227.13 401.79 227.89 C 404.42 220.31 406.79 212.64 409.14 204.97 C 415.21 201.71 422.17 200.60 428.99 200.41 C 442.77 200.06 456.40 202.86 469.70 206.25 C 494.48 212.74 518.39 222.11 541.92 232.15 C 559.65 239.84 577.24 247.86 594.49 256.58 C 591.47 250.84 588.23 245.02 583.23 240.76 C 578.22 236.40 573.37 231.89 568.83 227.06 C 566.41 224.47 563.05 221.90 563.11 218.02 C 564.17 211.89 565.99 205.93 567.58 199.92 C 582.83 200.68 598.11 200.57 613.37 201.11 C 609.57 185.05 599.54 171.44 588.67 159.40 C 576.86 146.81 564.16 135.09 552.21 122.64 C 574.11 125.05 596.07 126.84 617.98 129.12 C 612.73 120.62 605.66 113.37 597.51 107.62 C 580.27 95.32 560.19 87.73 539.99 81.80 C 503.64 71.67 465.74 67.03 428.01 68.13 C 401.78 69.55 374.95 72.07 350.63 82.76 M 245.35 85.69 C 245.68 97.01 246.04 108.33 246.22 119.65 C 256.43 121.71 267.83 119.89 275.73 112.74 C 281.81 107.49 285.69 99.19 284.25 91.11 C 279.95 88.36 274.94 86.84 270.26 84.82 C 262.40 81.89 252.40 80.14 245.35 85.69 M 240.25 207.05 C 240.63 213.02 240.57 219.00 240.94 224.97 C 241.07 248.61 245.13 272.34 254.07 294.28 C 265.87 277.75 277.88 261.37 290.03 245.09 C 273.97 231.73 256.15 220.63 240.25 207.05 M 450.77 240.82 C 461.30 253.71 473.68 265.11 487.54 274.35 C 497.65 281.24 508.68 286.60 519.86 291.50 C 502.83 292.43 485.85 294.11 468.83 295.11 C 471.59 305.78 473.64 316.69 476.68 327.25 C 488.85 339.63 501.73 351.33 514.04 363.58 C 499.27 358.36 484.35 353.57 469.56 348.41 C 465.90 353.60 462.19 358.81 459.60 364.64 C 457.82 368.87 454.94 372.50 452.04 376.00 C 446.13 383.03 440.07 389.92 433.85 396.66 C 443.41 408.60 452.68 420.78 462.47 432.54 C 449.17 427.76 436.07 422.41 422.58 418.18 C 416.40 416.45 410.10 414.33 403.60 414.76 C 399.56 414.73 397.54 418.95 393.88 420.02 C 390.15 421.27 389.00 425.39 387.56 428.63 C 376.85 456.84 366.85 485.47 360.91 515.12 C 357.73 531.23 356.09 547.73 357.34 564.14 C 358.59 578.59 362.50 592.83 369.19 605.72 C 378.27 623.62 392.18 638.38 406.53 652.17 C 409.82 644.37 413.63 636.80 416.96 629.02 C 423.86 609.19 432.72 590.10 442.29 571.43 C 453.03 550.51 465.04 530.24 475.17 509.00 C 478.83 501.19 482.58 493.32 484.52 484.87 C 485.73 479.93 484.64 474.84 484.92 469.84 C 480.39 463.12 472.45 459.80 466.98 453.93 C 471.61 454.85 476.32 455.32 480.98 456.06 C 498.59 459.08 515.68 464.39 532.90 469.01 C 552.81 474.62 573.36 477.95 594.03 478.75 C 602.52 478.63 612.44 477.35 617.83 469.95 C 622.91 462.67 625.63 453.27 623.52 444.47 C 620.89 434.64 612.93 427.73 606.18 420.64 C 616.87 420.93 627.56 420.42 638.25 420.82 C 626.73 411.69 614.88 402.96 603.19 394.05 C 612.94 388.74 622.77 383.58 632.55 378.32 C 622.70 373.11 612.67 368.26 602.76 363.17 C 601.49 362.75 600.74 361.69 601.46 360.43 C 602.95 356.11 601.94 350.18 606.49 347.55 C 617.79 340.41 628.36 332.17 638.60 323.59 C 635.49 318.75 631.75 314.35 627.71 310.27 C 617.08 299.72 605.21 290.45 592.69 282.26 C 583.49 276.48 574.03 270.85 563.65 267.50 C 526.07 258.41 488.31 250.06 450.77 240.82 Z" />
<path fill="#0a0b0d" opacity="1.00" d=" M 320.00 263.87 C 329.77 259.08 340.70 257.22 351.50 256.84 C 335.26 267.37 322.31 283.27 316.55 301.85 C 314.71 308.30 317.80 315.13 322.31 319.71 C 330.24 327.45 341.27 331.24 352.11 332.37 C 362.39 333.33 373.65 331.59 381.75 324.75 C 394.03 314.27 393.99 293.84 383.72 281.98 C 376.51 273.32 367.16 266.78 359.43 258.61 C 372.55 258.37 386.45 260.65 397.16 268.76 C 409.19 277.33 415.61 292.41 415.16 306.99 C 415.40 317.01 412.33 326.84 407.78 335.68 C 400.43 348.73 388.32 359.24 373.90 363.61 C 356.37 368.97 336.28 367.24 320.70 357.26 C 299.79 344.20 288.11 316.97 294.97 293.00 C 298.52 280.23 308.08 269.51 320.00 263.87 Z" />
</g>
</svg>
