<?xml version="1.0" encoding="UTF-8" ?>
<!DOCTYPE svg PUBLIC "-//W3C//DTD SVG 1.1//EN" "http://www.w3.org/Graphics/SVG/1.1/DTD/svg11.dtd">
<svg width="225pt" height="225pt" viewBox="0 0 225 225" version="1.1" xmlns="http://www.w3.org/2000/svg">
<g id="#ffffffff">
</g>
<g id="#747779ff">
<path fill="#747779" opacity="1.00" d=" M 19.49 41.48 C 23.17 40.14 27.15 40.60 30.99 40.54 C 87.32 40.55 143.66 40.53 199.99 40.55 C 205.74 40.34 211.34 43.91 213.60 49.19 C 216.37 55.01 214.50 62.46 209.48 66.44 C 206.58 68.93 202.68 69.87 198.92 69.77 C 140.93 69.74 82.94 69.79 24.95 69.74 C 18.10 69.94 11.68 64.74 10.41 58.02 C 8.88 51.26 13.02 43.87 19.49 41.48 Z" />
<path fill="#747779" opacity="1.00" d=" M 23.13 101.37 C 81.73 101.06 140.35 101.34 198.95 101.23 C 205.44 100.77 212.03 104.82 214.05 111.08 C 216.48 117.47 213.48 125.22 207.57 128.54 C 203.49 131.03 198.52 130.38 193.97 130.45 C 137.97 130.45 81.96 130.42 25.95 130.46 C 21.81 130.64 17.55 129.38 14.59 126.39 C 9.52 121.66 8.63 113.25 12.69 107.61 C 15.07 104.17 18.95 101.77 23.13 101.37 Z" />
<path fill="#747779" opacity="1.00" d=" M 22.00 162.25 C 25.31 161.79 28.66 162.02 31.99 162.00 C 88.00 162.00 144.00 162.00 200.01 162.00 C 205.83 161.86 211.54 165.52 213.71 170.95 C 217.88 179.72 210.77 191.20 201.01 191.16 C 142.36 191.24 83.71 191.16 25.06 191.20 C 17.90 191.61 11.30 185.89 10.29 178.85 C 8.96 171.34 14.48 163.53 22.00 162.25 Z" />
</g>
</svg>
